<svg width="300" height="300" viewBox="0 0 300 300" fill="none" xmlns="http://www.w3.org/2000/svg">
<rect width="300" height="300" fill="#CEDBF5"/>
<path d="M149.5 99.25C135.37 99.25 123.875 110.745 123.875 124.875V140.25H118.75C116.032 140.25 113.424 141.33 111.502 143.252C109.58 145.174 108.5 147.782 108.5 150.5V191.5C108.5 194.218 109.58 196.826 111.502 198.748C113.424 200.67 116.032 201.75 118.75 201.75H180.25C182.968 201.75 185.576 200.67 187.498 198.748C189.42 196.826 190.5 194.218 190.5 191.5V150.5C190.5 147.782 189.42 145.174 187.498 143.252C185.576 141.33 182.968 140.25 180.25 140.25H175.125V124.875C175.125 110.745 163.63 99.25 149.5 99.25ZM134.125 124.875C134.125 116.398 141.023 109.5 149.5 109.5C157.977 109.5 164.875 116.398 164.875 124.875V140.25H134.125V124.875ZM154.625 179.83V191.5H144.375V179.83C142.583 178.804 141.144 177.259 140.248 175.399C139.353 173.539 139.041 171.451 139.356 169.41C139.671 167.369 140.596 165.472 142.011 163.968C143.426 162.464 145.263 161.424 147.281 160.986C148.78 160.654 150.333 160.664 151.828 161.013C153.323 161.362 154.72 162.042 155.916 163.003C157.113 163.964 158.079 165.182 158.742 166.566C159.406 167.95 159.75 169.465 159.75 171C159.747 172.792 159.272 174.552 158.372 176.103C157.472 177.653 156.18 178.939 154.625 179.83V179.83Z" fill="black"/>
</svg>
