<?xml version="1.0" encoding="utf-8"?>
<!-- Generator: Adobe Illustrator 26.0.1, SVG Export Plug-In . SVG Version: 6.00 Build 0)  -->
<svg version="1.1" id="Calque_1" xmlns="http://www.w3.org/2000/svg" xmlns:xlink="http://www.w3.org/1999/xlink" x="0px" y="0px"
	 viewBox="0 0 283.46 283.46" style="enable-background:new 0 0 283.46 283.46;" xml:space="preserve">
<style type="text/css">
	.st0{fill:#D3D3CF;stroke:#000000;stroke-miterlimit:10;}
	.st1{fill:#EAEAEA;stroke:#000000;stroke-miterlimit:10;}
</style>
<g>
	<path class="st0" d="M173.36,128.6c0,15.55,0,30.76,0,47.35c11.01-8.93,16.41-20.79,24.76-30.15
		c-17.46-17.46-34.88-34.88-52.59-52.59c0-17.7,0-35.7,0-54.73c15.72,0,31.39,0,47.06,0c10.23,0,20.45,0.2,30.67,0.12
		c4.38-0.04,7.6-0.87,8.23,2.45c0,29.49,0,57.72,0,84.6c-9.05-9.05-18.65-18.65-30.35-30.35c0-5.88,0-15.52,0-25.63
		c-9.16,0-17.86,0-27.47,0c-1.83,8.35,1.61,14.25,6.94,19.55c17.13,17.03,34.21,34.11,51.13,50.99c1.73,11.52-6.75,18.09-12,25.98
		c-5.4,8.12-11.29,16-17.75,23.3c-6.52,7.38-11.71,15.78-17.99,23.13c-8.18,9.57-15.43,19.78-23.28,29.55
		c-4.5,5.6-8.88,11.29-13.64,17.36c-2.32-10.09-2.71-139.26-0.65-155.26L173.36,128.6z"/>
	<path class="st1" d="M106.54,89.78c-0.24-0.06-2.36,2.34-2.66,2.64c-4.28,4.27-6.83,8.31-12.22,13.7l-13.37-14.6v96.34
		c-12.81-12.62-21.67-25.73-30.75-39.23c0-33.06-0.01-66.48,0.02-99.9c0-3.01-0.79-6.39,3.25-8.7c1.56-0.9,3.38-1.25,5.18-1.25h8.29
		L91.47,64.3c9.02-9.04,15.51-17.25,23.77-25.52h18.34v220.48c-11.74-8.94-16.74-22.57-27.3-32.19L106.54,89.78z"/>
</g>
</svg>
